<svg xmlns="http://www.w3.org/2000/svg" viewBox="0 0 24 24" width="32" height="32">
  <rect width="24" height="24" rx="5" fill="#0a0a0a"/>
  <g transform="translate(4.8,4.8) scale(0.6)" fill="none" stroke="#ffffff" stroke-width="2" stroke-linecap="round" stroke-linejoin="round">
    <path d="M15.536 11.293a1 1 0 0 0 0 1.414l2.376 2.377a1 1 0 0 0 1.414 0l2.377-2.377a1 1 0 0 0 0-1.414l-2.377-2.377a1 1 0 0 0-1.414 0z"/>
    <path d="M2.297 11.293a1 1 0 0 0 0 1.414l2.377 2.377a1 1 0 0 0 1.414 0l2.377-2.377a1 1 0 0 0 0-1.414L6.088 8.916a1 1 0 0 0-1.414 0z"/>
    <path d="M8.916 4.674a1 1 0 0 0 0 1.414l2.377 2.377a1 1 0 0 0 1.414 0l2.377-2.377a1 1 0 0 0 0-1.414l-2.377-2.377a1 1 0 0 0-1.414 0z"/>
    <path d="M8.916 17.912a1 1 0 0 0 0 1.414l2.377 2.377a1 1 0 0 0 1.414 0l2.377-2.377a1 1 0 0 0 0-1.414l-2.377-2.377a1 1 0 0 0-1.414 0z"/>
  </g>
</svg>
